<?xml version="1.0" standalone="no"?><!DOCTYPE svg PUBLIC "-//W3C//DTD SVG 1.1//EN" "http://www.w3.org/Graphics/SVG/1.1/DTD/svg11.dtd"><svg t="1511495827375" class="icon" style="" viewBox="0 0 1024 1024" version="1.1" xmlns="http://www.w3.org/2000/svg" p-id="3414" xmlns:xlink="http://www.w3.org/1999/xlink" width="128" height="128"><defs><style type="text/css"></style></defs><path d="M221.77792 305.11104l130.23232 83.68128c4.46464 2.92864 9.64608 5.05856 15.31904 6.16448 21.2992 4.07552 41.43104-7.80288 45.03552-26.54208 2.68288-13.74208-4.28032-27.32032-16.62976-35.24608l-130.23232-83.78368a42.98752 42.98752 0 0 0-15.33952-6.10304c-21.23776-4.096-41.45152 7.7824-45.03552 26.50112-2.6624 13.76256 4.38272 27.40224 16.65024 35.328zM221.77792 479.1296l130.23232 83.68128c4.46464 2.92864 9.64608 5.09952 15.31904 6.16448 21.2992 4.07552 41.43104-7.7824 45.03552-26.58304 2.68288-13.76256-4.28032-27.29984-16.62976-35.2256l-130.23232-83.74272a43.4176 43.4176 0 0 0-15.33952-6.144c-21.23776-4.07552-41.45152 7.80288-45.03552 26.54208-2.6624 13.7216 4.38272 27.38176 16.65024 35.30752zM221.77792 664.61696l130.23232 83.68128c4.46464 2.90816 9.64608 5.05856 15.31904 6.144 21.2992 4.096 41.43104-7.82336 45.03552-26.56256 2.68288-13.76256-4.28032-27.32032-16.62976-35.2256l-130.23232-83.78368a43.80672 43.80672 0 0 0-15.33952-6.144c-21.23776-4.05504-41.45152 7.80288-45.03552 26.54208-2.6624 13.74208 4.38272 27.40224 16.65024 35.34848zM782.49984 249.4464l-135.7824 74.36288a43.1104 43.1104 0 0 0-12.73856 10.50624c-13.76256 16.75264-12.96384 40.12032 1.80224 52.24448 10.77248 8.94976 26.03008 9.29792 38.87104 2.27328l135.86432-74.32192c4.68992-2.56 9.03168-6.10304 12.6976-10.56768 13.74208-16.6912 12.98432-40.12032-1.76128-52.224-10.77248-8.92928-26.13248-9.25696-38.95296-2.27328zM782.29504 423.28064l-135.5776 74.71104a41.82016 41.82016 0 0 0-12.6976 10.5472c-13.74208 16.77312-12.88192 40.1408 1.9456 52.24448 10.81344 8.92928 26.03008 9.23648 38.87104 2.1504l135.63904-74.67008a43.6224 43.6224 0 0 0 12.6976-10.56768c13.70112-16.73216 12.88192-40.16128-1.90464-52.24448-10.79296-8.86784-26.17344-9.17504-38.97344-2.17088zM781.53728 608.1536l-134.77888 76.14464a42.98752 42.98752 0 0 0-12.57472 10.67008c-13.55776 16.93696-12.41088 40.30464 2.47808 52.224 10.91584 8.8064 26.15296 8.97024 38.89152 1.76128l134.88128-76.10368a43.4176 43.4176 0 0 0 12.57472-10.69056c13.49632-16.896 12.45184-40.30464-2.43712-52.224-10.91584-8.76544-26.27584-8.9088-39.03488-1.78176z" fill="#1296db" p-id="3415"></path><path d="M928.3584 23.69536c-5.98016 0-11.65312 1.24928-16.83456 3.46112h-0.12288l-0.38912 0.2048-397.45536 183.82848L112.9472 27.38176a3.80928 3.80928 0 0 0-0.4096-0.2048h-0.04096a42.86464 42.86464 0 0 0-16.91648-3.4816c-24.3712 0-44.11392 20.41856-44.11392 45.64992v700.06784a45.6704 45.6704 0 0 0 27.50464 42.2912l417.91488 182.19008c5.36576 2.43712 11.28448 3.74784 17.48992 3.74784 6.18496 0 12.10368-1.29024 17.42848-3.74784l413.16352-182.19008a45.75232 45.75232 0 0 0 27.52512-42.2912V69.34528c0-25.23136-19.7632-45.64992-44.1344-45.64992zM486.56384 940.07296L106.1888 770.56 103.44448 86.34368l383.13984 164.00384v689.72544h-0.02048z m431.77984-174.81728l-374.0672 175.53408 1.55648-684.76928L918.3232 94.37184v670.88384z" fill="#1296db" p-id="3416"></path></svg>