<?xml version="1.0" standalone="no"?><!DOCTYPE svg PUBLIC "-//W3C//DTD SVG 1.1//EN" "http://www.w3.org/Graphics/SVG/1.1/DTD/svg11.dtd"><svg t="1511496071253" class="icon" style="" viewBox="0 0 1024 1024" version="1.1" xmlns="http://www.w3.org/2000/svg" p-id="6124" xmlns:xlink="http://www.w3.org/1999/xlink" width="128" height="128"><defs><style type="text/css"></style></defs><path d="M349.138084 407.526136c6.898588 7.998363 10.097934 16.896543 9.698016 26.594559-0.09998 8.498261-3.599264 16.696584-9.698016 22.695356L218.464821 585.589703l130.673263 128.773652c6.298711 6.098752 9.698016 13.797177 10.197913 23.195254 0.699857 9.797995-3.099366 19.296052-10.197913 26.09466-9.997954 7.298507-20.195868 10.597832-30.493761 9.997955-8.69822-0.299939-17.096502-3.899202-23.195254-9.997955L137.78133 608.285059c-7.198527-7.198527-10.597832-15.196891-10.097934-24.195049 0.499898-7.998363 3.899202-15.096911 10.097934-21.295643l157.56776-155.268231c6.098752-5.998773 14.397054-9.198118 24.894906-9.498056 10.497852-0.599877 20.895725 2.799427 28.894088 9.498056z m180.663035 15.196891c3.799223-9.498057 11.197709-17.196481 20.695765-21.395622 9.997954-4.599059 19.79595-5.098957 29.194027-1.399714 9.797995 3.799223 16.996522 10.597832 21.695561 20.395827 4.699039 9.897975 5.198936 19.496011 1.399713 28.894088L487.609751 744.557177c-3.799223 9.498057-11.197709 17.196481-20.695765 21.395622-9.997954 4.599059-19.79595 5.098957-29.393986 1.399713-9.598036-3.799223-17.296461-11.097729-21.595581-20.395826-4.799018-9.897975-5.198936-19.496011-1.399714-28.894088l115.276414-295.339571z m408.416434 506.796305V253.257701H83.292479v676.261631h854.925074z m-44.790836-339.33057c0.599877 9.997954-2.799427 18.496216-10.097933 25.694742L729.660226 767.452492c-7.298507 7.198527-16.796563 10.497852-28.294211 9.897975-10.797791-0.499898-19.296052-3.799223-25.494784-9.897975-5.698834-7.498466-8.69822-16.696584-8.59824-26.094661 0-9.797995 2.899407-17.49642 8.59824-23.195254l130.673263-128.873631-130.773242-124.67449c-17.396441-16.296666-19.995909-32.79329-7.698425-49.489874 5.898793-7.998363 15.096911-11.997545 27.594354-11.897566 12.197504 0.199959 22.195459 4.099161 29.993863 11.897566l157.56776 155.168251c6.298711 4.099161 9.698016 10.697811 10.197913 19.895929zM957.213666 0.009518c16.996522-0.299939 33.393167 6.49867 45.190754 18.696175 12.497443 12.397463 18.796154 27.394395 18.796154 45.090774v882.719387c0 17.5964-6.198732 32.693311-18.596195 45.090774-11.797586 12.197504-28.194231 18.996113-45.290733 18.696175H64.096406c-16.996522 0.299939-33.393167-6.49867-45.190753-18.596195C6.608169 979.809042-0.19044 963.512376 0.109499 946.515854V63.796467C0.109499 46.200067 6.30823 31.103156 18.705694 18.705693 30.603259 6.508188 46.999904-0.290421 64.096406 0.009518h893.11726z" fill="#6DC7D9" p-id="6125"></path></svg>