<?xml version="1.0" standalone="no"?><!DOCTYPE svg PUBLIC "-//W3C//DTD SVG 1.1//EN" "http://www.w3.org/Graphics/SVG/1.1/DTD/svg11.dtd"><svg t="1491038050058" class="icon" style="" viewBox="0 0 1024 1024" version="1.1" xmlns="http://www.w3.org/2000/svg" p-id="2906" xmlns:xlink="http://www.w3.org/1999/xlink" width="64" height="64"><defs><style type="text/css"></style></defs><path d="M476.411969 300.298414c33.736359 14.112416 67.13912 29.1806 101.320617 42.178635 25.215288 9.588379 48.63058 24.560372 80.166831 27.395954 6.868431-2.644223 17.808598-5.064342 26.699082-10.735505 9.872858-6.274914 27.619034-7.29515 27.650757-20.961404 0.063445-17.171078-18.35095-16.629749-30.568203-21.12104-45.792952-16.789385-92.78215-31.029714-136.951115-51.354622-26.696012-12.296047-46.971801-2.771113-69.559239 5.574972-6.500041 2.421142-13.141298 5.526877-13.986549 13.093203C459.990974 294.978245 468.957183 297.176306 476.411969 300.298414z" p-id="2907" fill="#1296db"></path><path d="M573.034587 384.544143c-42.402739-17.441231-86.810135-31.18935-126.823454-53.011354-47.737234-26.042119-89.692788-21.072945-133.686768 9.272177 5.877871 15.434527 21.23258 18.173918 34.007535 23.685445 47.084365 20.22974 95.17157 38.322817 141.283794 60.511165 32.397874 15.594163 58.950623 8.968256 87.303368-8.489348C597.595982 402.653593 595.239308 393.671011 573.034587 384.544143z" p-id="2908" fill="#1296db"></path><path d="M484.806149 466.558042c-63.618946-26.40744-126.757962-53.965076-190.32779-80.468706-21.502733-8.951883-33.146934-2.676969-32.876782 22.790052 0.669242 63.634296 0.477884 127.253242 0.063445 190.901865-0.096191 15.131629 5.240351 26.505677 18.254759 33.609469 66.452481 36.189224 133.033899 72.155367 199.582571 108.187001 18.987447 10.29139 28.129664 3.53757 28.241204-16.996093 0.23843-37.894052 0.079818-75.80243 0.079818-113.712855 0.127913 0 0.255827 0 0.381693 0 0-33.863249-0.031722-67.693752 0-101.559047C508.220419 490.769466 504.955048 474.904127 484.806149 466.558042z" p-id="2909" fill="#1296db"></path><path d="M762.1999 393.797901c-0.030699-17.458627-4.203742-24.879644-24.416086-16.344247-37.480636 15.833617-67.490114 33.943067-59.113329 82.796728 3.568269 20.881586-0.698918 45.683459-27.363208 45.331441-24.051789-0.301875-12.199856-25.102724-15.546068-39.247886-2.324952-9.749038 2.692319-23.287379-13.140275-25.645077-21.615297-3.217275-71.152527 37.559431-71.343885 60.114123-0.653893 71.933309-0.286526 143.898341-0.255827 215.83165 0.017396 27.301809 11.995195 29.977755 33.004695 16.532535 23.970948-15.33936 47.2747-32.464389 72.983221-44.26618 82.048691-37.670971 133.76761-90.710978 105.207134-172.902932C762.21525 464.391702 762.250042 429.093778 762.1999 393.797901z" p-id="2910" fill="#1296db"></path><path d="M927.106718 67.886133 96.892259 67.886133c-16.020882 0-29.007661 12.985756-29.007661 29.006637l0 830.215482c0 16.020882 12.985756 29.006637 29.007661 29.006637l830.215482 0c16.019859 0 29.007661-12.986779 29.007661-29.006637L956.115402 96.891747C956.114378 80.870866 943.125553 67.886133 927.106718 67.886133zM764.923942 669.709905c-70.230528 40.904619-138.961912 84.483136-207.595059 128.062678-19.497053 12.361539-36.109406 13.380752-56.545854 2.070148-82.95534-45.937239-166.228929-91.334171-250.204505-135.357827-20.020986-10.480702-26.758434-24.11728-26.66429-45.141106 0.476861-86.857207 0.509606-173.714414 0.047072-260.556271-0.110517-21.949918 8.553817-34.262338 29.595039-42.434461 76.934207-29.881564 153.311735-61.229526 229.640144-92.638887 21.391193-8.79327 42.211381-8.855692 63.395866-1.099031 72.427566 26.552749 144.630005 53.741995 217.294978 79.641875 26.249851 9.349949 39.534412 23.780613 37.990243 53.726645-2.245134 43.294039-0.575098 86.810135-0.575098 130.23004 0.033769 38.004569-1.671059 76.106352 0.557702 113.950262C803.742039 632.181173 793.642007 652.986011 764.923942 669.709905z" p-id="2911" fill="#1296db"></path></svg>